<?xml version="1.0" encoding="UTF-8" standalone="no"?>
<!-- Created with Inkscape (http://www.inkscape.org/) -->

<svg
   xmlns:dc="http://purl.org/dc/elements/1.1/"
   xmlns:cc="http://creativecommons.org/ns#"
   xmlns:rdf="http://www.w3.org/1999/02/22-rdf-syntax-ns#"
   xmlns:svg="http://www.w3.org/2000/svg"
   xmlns="http://www.w3.org/2000/svg"
   xmlns:sodipodi="http://sodipodi.sourceforge.net/DTD/sodipodi-0.dtd"
   xmlns:inkscape="http://www.inkscape.org/namespaces/inkscape"
   width="229.58154mm"
   height="228.61853mm"
   viewBox="0 0 229.58154 228.61853"
   version="1.1"
   id="svg8"
   inkscape:version="0.92.0 r15299"
   sodipodi:docname="icon.svg"
   inkscape:export-filename="C:\Workspace\OverlayManager\icon.png"
   inkscape:export-xdpi="96"
   inkscape:export-ydpi="96">
  <sodipodi:namedview
     id="base"
     pagecolor="#ffffff"
     bordercolor="#666666"
     borderopacity="1.0"
     inkscape:pageopacity="0.0"
     inkscape:pageshadow="2"
     inkscape:zoom="0.49497475"
     inkscape:cx="-791.17721"
     inkscape:cy="387.30189"
     inkscape:document-units="mm"
     inkscape:current-layer="layer1"
     showgrid="false"
     inkscape:measure-start="0,0"
     inkscape:measure-end="0,0"
     inkscape:window-width="2560"
     inkscape:window-height="1377"
     inkscape:window-x="2552"
     inkscape:window-y="-8"
     inkscape:window-maximized="1"
     fit-margin-top="0"
     fit-margin-left="0"
     fit-margin-right="0"
     fit-margin-bottom="0" />
  <defs
     id="defs2" />
  <metadata
     id="metadata5">
    <rdf:RDF>
      <cc:Work
         rdf:about="">
        <dc:format>image/svg+xml</dc:format>
        <dc:type
           rdf:resource="http://purl.org/dc/dcmitype/StillImage" />
        <dc:title></dc:title>
      </cc:Work>
    </rdf:RDF>
  </metadata>
  <g
     id="layer1"
     inkscape:groupmode="layer"
     inkscape:label="Layer 1"
     transform="translate(2.6910802,7.7110344)">
    <ellipse
       style="opacity:0.5;fill:#ffffff;stroke-width:0.26458332"
       id="path5703"
       cx="112.48357"
       cy="104.46796"
       rx="91.120399"
       ry="89.892548" />
    <g
       id="g4867"
       inkscape:label="Gear22"
       transform="matrix(0.81473002,0,0,0.81473002,-40.71342,8.0928106)"
       style="fill:#9393ac"
       inkscape:export-xdpi="96"
       inkscape:export-ydpi="96">
      <path
         style="fill:#9393ac;stroke:#000000;stroke-width:0.26458332"
         d="m 173.29605,-19.252468 -11.5316,1.658297 -1.65261,12.3088086 0.19431,1.966288 2.09547,9.5508391 -15.66881,4.6007523 -3.40082,-9.1679156 -0.89969,-1.75854784 -8.04499,-9.46195496 -10.5978,4.8400149 1.88206,12.2762511 0.74,1.8314141 4.70204,8.5736373 -13.73818,8.828918 -5.84615,-7.838281 -1.35858,-1.43402 -10.384893,-6.811473 -8.804629,7.628993 5.264277,11.248924 1.226283,1.548744 6.926712,6.901905 -10.69444,12.341881 -7.817096,-5.874059 -1.707388,-0.993222 -11.883511,-3.610116 -6.29884,9.800953 8.22017,9.310026 1.61282,1.140499 8.59069,4.671031 -6.784083,14.854391 -9.155512,-3.433382 -1.918229,-0.471805 -12.41888,-0.115755 -3.282487,11.178128 10.51047,6.616651 1.868619,0.640271 9.558589,2.061373 -2.323888,16.164389 -9.752378,-0.7152 -1.973006,0.0878 -11.949141,3.38739 v 11.65045 l 11.949141,3.3879 1.973006,0.0873 9.752378,-0.7152 2.323888,16.16438 -9.558589,2.06138 -1.868619,0.64027 -10.51047,6.61665 3.282487,11.17864 12.41888,-0.11575 1.918229,-0.47232 9.155512,-3.43339 6.784083,14.85491 -8.59069,4.67052 -1.61282,1.1405 -8.22017,9.31002 6.29884,9.80095 11.883511,-3.61011 1.707388,-0.99322 7.817096,-5.87355 10.69444,12.34137 -6.926712,6.9019 -1.226283,1.54875 -5.264277,11.24892 8.804629,7.62951 10.384893,-6.81199 1.35858,-1.43402 5.84615,-7.83828 13.73818,8.82892 -4.70204,8.57364 -0.74,1.83141 -1.88206,12.27625 10.5978,4.84002 8.04499,-9.46196 0.89969,-1.75855 3.40082,-9.16791 15.66881,4.60075 -2.09547,9.55135 -0.19431,1.96578 1.65261,12.30932 11.5316,1.65778 5.05395,-11.34504 0.36742,-1.94097 0.68007,-9.75444 h 16.33078 l 0.68006,9.75444 0.36742,1.94097 5.05396,11.34504 11.53159,-1.65778 1.65262,-12.30932 -0.19379,-1.96578 -2.096,-9.55135 15.66933,-4.60075 3.40083,9.16791 0.89917,1.75855 8.0455,9.46196 10.59729,-4.84002 -1.88206,-12.27625 -0.74001,-1.83141 -4.70152,-8.57364 13.73818,-8.82892 5.84564,7.83828 1.35857,1.43402 10.3849,6.81199 8.80463,-7.62951 -5.26428,-11.24892 -1.22628,-1.54875 -6.92671,-6.9019 10.69444,-12.34137 7.81709,5.87355 1.70791,0.99322 11.88351,3.61011 6.29832,-9.80095 -8.22017,-9.31002 -1.61282,-1.1405 -8.59069,-4.67052 6.78408,-14.85491 9.15552,3.43339 1.91823,0.47232 12.41939,0.11575 3.28197,-11.17864 -10.51047,-6.61665 -1.86862,-0.64027 -9.55859,-2.06138 2.32441,-16.16438 9.75186,0.7152 1.97352,-0.0873 11.94863,-3.3879 v -11.65045 l -11.94863,-3.38739 -1.97352,-0.0878 -9.75186,0.7152 -2.32441,-16.164389 9.55859,-2.061373 1.86862,-0.640271 10.51047,-6.616651 -3.28197,-11.178128 -12.41939,0.115755 -1.91823,0.471805 -9.15552,3.433382 -6.78408,-14.854391 8.59069,-4.671031 1.61282,-1.140499 8.22017,-9.310026 -6.29832,-9.800953 -11.88351,3.610116 -1.70791,0.993222 -7.81709,5.874059 -10.69444,-12.341881 6.92671,-6.901905 1.22628,-1.548744 5.26428,-11.248924 -8.80463,-7.628993 -10.3849,6.811473 -1.35857,1.43402 -5.84564,7.838281 -13.73818,-8.828918 4.70152,-8.5736373 0.74001,-1.8314141 1.88206,-12.2762511 -10.59729,-4.8400149 -8.0455,9.46195496 -0.89917,1.75854784 -3.40083,9.1679156 -15.66933,-4.6007523 2.096,-9.5508391 0.19379,-1.966288 -1.65262,-12.3088086 -11.53159,-1.658297 -5.05396,11.3450451 -0.36742,1.9409648 -0.68006,9.7544439 H 179.39749 L 178.71742,-5.9664581 178.35,-7.9074229 Z m 14.31954,48.438903 a 92.182166,91.720161 0 0 1 92.18197,91.719985 92.182166,91.720161 0 0 1 -92.18197,91.7205 92.182166,91.720161 0 0 1 -92.18197,-91.7205 92.182166,91.720161 0 0 1 92.18197,-91.719985 z"
         id="path4863"
         inkscape:connector-curvature="0" />
    </g>
    <rect
       y="95.697708"
       x="61.199417"
       height="59.996021"
       width="67.368752"
       id="rect3756"
       style="opacity:0.63;fill:#ffff00;stroke-width:0.11603829"
       inkscape:export-xdpi="96"
       inkscape:export-ydpi="96" />
    <rect
       y="77.143692"
       x="109.55061"
       height="67.367882"
       width="67.381821"
       id="rect3758"
       style="opacity:0.63;fill:#800000;stroke-width:0.13929556"
       inkscape:export-xdpi="96"
       inkscape:export-ydpi="96" />
    <ellipse
       ry="34.485744"
       rx="37.075703"
       cy="77.926285"
       cx="105.0933"
       id="path3760"
       style="opacity:0.62540013;fill:#000080;stroke-width:0.18017933"
       inkscape:export-xdpi="96"
       inkscape:export-ydpi="96" />
  </g>
  <g
     inkscape:groupmode="layer"
     id="layer2"
     inkscape:label="Layer 2"
     transform="translate(2.6910802,7.7110344)" />
</svg>
